<svg xmlns="http://www.w3.org/2000/svg" viewBox="0 0 511.999 511.999"><path fill="#4a80aa" d="M319.209 445.891c-9.486-6.328-15.263-17.521-15.263-29.575v-30.161l-4.379-4.181h-82.929l-8.585 4.181v30.161c0 12.054-5.776 23.247-15.263 29.575l-21.257 14.18 4.414 4.06h160.964l3.556-4.06z"/><path fill="#407093" d="M236.69 445.891c9.487-6.328 15.263-17.521 15.263-29.575v-30.161l8.585-4.181h-43.9l-8.585 4.181v30.161c0 12.054-5.776 23.247-15.263 29.575l-21.257 14.18 4.414 4.06h43.9l-4.414-4.06z"/><path fill="#3f6d8e" d="M482.31 19.791H29.689C13.318 19.791 0 33.109 0 49.48v306.986c0 16.371 13.318 29.689 29.689 29.689H482.31c16.371 0 29.689-13.318 29.689-29.689V49.48c0-16.371-13.318-29.689-29.689-29.689z"/><path fill="#365e7d" d="M33.652 356.466V49.48c0-16.371 13.318-29.689 29.689-29.689H29.689C13.318 19.791 0 33.109 0 49.48v306.986c0 16.371 13.318 29.689 29.689 29.689h33.652c-16.371 0-29.689-13.318-29.689-29.689z"/><path fill="#e4f6ff" d="M475.211 85.8H39.449l-7.312 4.336v259.61a4.271 4.271 0 004.272 4.272H475.59a4.272 4.272 0 004.272-4.272V90.136z"/><path fill="#d3effb" d="M78.531 349.746V85.8H39.449l-7.312 4.336v259.61a4.271 4.271 0 004.272 4.272h46.394a4.271 4.271 0 01-4.272-4.272z"/><path fill="#3f6d8e" d="M358.159 460.071H153.84c-5.689 0-10.301 4.612-10.301 10.301v11.535c0 5.69 4.612 10.301 10.301 10.301h204.319c5.689 0 10.301-4.612 10.301-10.301v-11.535c0-5.69-4.612-10.301-10.301-10.301z"/><path fill="#365e7d" d="M187.439 481.907v-11.535c0-5.69 4.612-10.301 10.301-10.301h-43.9c-5.689 0-10.301 4.612-10.301 10.301v11.535c0 5.69 4.612 10.301 10.301 10.301h43.9c-5.689 0-10.301-4.612-10.301-10.301z"/><path fill="#dd636e" d="M78.531 51.928H36.409a4.272 4.272 0 00-4.272 4.272v33.936h46.394l1.867-1.502V54.509z"/><path fill="#b1e4f9" d="M475.59 51.928H78.531v38.208h401.331V56.2a4.272 4.272 0 00-4.272-4.272z"/><path fill="#dd636e" d="M311.425 301.634V223.38a2.304 2.304 0 00-2.304-2.304h-25.922a2.304 2.304 0 00-2.304 2.304v78.254z"/><path fill="#ffaa5b" d="M372.487 301.634V195.049a2.304 2.304 0 00-2.304-2.304H344.26a2.304 2.304 0 00-2.304 2.304v106.586h30.531z"/><path fill="#b3e59f" d="M433.549 301.634V166.717a2.304 2.304 0 00-2.304-2.304h-25.922a2.304 2.304 0 00-2.304 2.304v134.918h30.53z"/><path fill="#da4a54" d="M300.54 221.076h-17.341a2.304 2.304 0 00-2.304 2.304v78.254h17.341V223.38a2.304 2.304 0 012.304-2.304z"/><path fill="#ff9838" d="M361.602 192.744h-17.341a2.304 2.304 0 00-2.304 2.304v106.586h17.341V195.049a2.304 2.304 0 012.304-2.305z"/><path fill="#95d6a4" d="M422.664 164.412h-17.341a2.304 2.304 0 00-2.304 2.304v134.918h17.341V166.717a2.304 2.304 0 012.304-2.305z"/><g><path fill="#b1e4f9" d="M441.313 309.36H273.137a7.726 7.726 0 110-15.452h168.176a7.726 7.726 0 110 15.452z"/></g><g><path fill="#3f6d8e" d="M82.384 148.208h141.229v153.426H82.384z"/><path fill="#365e7d" d="M82.384 148.208h37.949v153.426H82.384z"/><path fill="#d3effb" d="M152.998 238.017H123.19a4.954 4.954 0 00-4.954 4.954v58.663h34.763l1.717-2.506v-59.235z"/><path fill="#ffaa5b" d="M133.665 195.762h-1.167c-10.677 0-19.333-8.656-19.333-19.333v-41.79h39.833v41.79c0 10.677-8.656 19.333-19.333 19.333z"/><path fill="#dd636e" d="M152.998 134.638v41.207c0 11 8.917 19.917 19.917 19.917 11 0 19.917-8.917 19.917-19.917v-41.207zM73.332 142.371v33.474c0 11 8.917 19.917 19.917 19.917 10.999 0 19.917-8.917 19.917-19.917v-41.207H81.064a7.733 7.733 0 00-7.732 7.733z"/><path fill="#ffaa5b" d="M224.932 134.638h-32.101v41.207c0 11 8.917 19.917 19.917 19.917 10.999 0 19.917-8.917 19.917-19.917v-33.474a7.733 7.733 0 00-7.733-7.733z"/><path fill="#ff9838" d="M131.536 175.845v-41.207h-18.371v41.207c0 11 8.917 19.917 19.917 19.917 3.316 0 6.436-.822 9.186-2.256-6.374-3.321-10.732-9.977-10.732-17.661z"/><path fill="#da4a54" d="M171.37 175.845v-41.207h-18.372v41.207c0 10.999 8.917 19.917 19.917 19.917 3.316 0 6.436-.822 9.186-2.256-6.373-3.321-10.731-9.977-10.731-17.661zM91.703 175.845v-41.207H81.064a7.733 7.733 0 00-7.733 7.732v33.475c0 10.999 8.917 19.917 19.917 19.917 3.316 0 6.436-.822 9.186-2.256-6.373-3.321-10.731-9.977-10.731-17.661z"/><path fill="#ff9838" d="M211.203 175.845v-41.207h-18.372v41.207c0 10.999 8.917 19.917 19.917 19.917 3.316 0 6.436-.822 9.186-2.256-6.373-3.321-10.731-9.977-10.731-17.661z"/><path fill="#e4f6ff" d="M182.806 238.017h-29.808v63.617h34.762v-58.663a4.954 4.954 0 00-4.954-4.954z"/><path fill="#b3e59f" d="M232.665 309.36H73.331a7.726 7.726 0 110-15.452h159.334a7.726 7.726 0 110 15.452z"/></g></svg>