<svg xmlns="http://www.w3.org/2000/svg" viewBox="0 0 340.306 79.508"><path d="M255.851.423c-.141.494-1.905 17.357-2.822 27.094-.318 3.21-1.023 10.512-1.588 16.227-.6 5.715-1.058 10.76-1.058 11.184 0 .776.106.81 3.175.81 2.293 0 3.175-.105 3.175-.458 0-.211.388-4.233.882-8.89a4519.8 4519.8 0 002.505-24.694c.882-8.925 1.693-17.392 1.87-18.803.14-1.411.176-2.646.07-2.717-.07-.105-1.482-.176-3.105-.176-2.046 0-2.998.141-3.104.423z"/><path fill="#008dd1" d="M179.298.776c-.106.247-.635 1.8-1.2 3.457-.564 1.658-2.08 6.103-3.386 9.878-1.27 3.775-3.104 9.172-4.057 11.995-.952 2.822-2.681 7.972-3.88 11.465-3.563 10.3-5.998 17.568-5.998 17.886 0 .14 2.435.211 5.398.176l5.362-.07 2.046-5.998a16127.29 16127.29 0 0113.406-39.44L190.34.353h-5.433c-4.057 0-5.503.106-5.609.423zM23.3 1.305c-.247.07-.459.53-.459.988 0 .776 1.27 2.54 5.116 7.056C45.525 29.95 46.97 31.503 49.264 32.103c1.87.494 4.163.211 6.35-.741.847-.388 4.763-2.787 8.643-5.398 3.916-2.575 9.702-6.42 12.912-8.502C95.725 5.327 99.041 2.963 99.041 2.046c0-.141-.423-.459-.917-.635-.917-.353-73.977-.459-74.824-.106zM159.79 1.8c-1.87.952-3.034 2.433-3.67 4.726-.599 2.117-.176 3.74 1.27 5.01 1.906 1.623 6.562.882 8.538-1.376 2.222-2.54 2.54-6.138.74-7.973-1.34-1.305-4.691-1.517-6.878-.388zM16.632 6.138c-.352.283-.67.635-.705.812 0 .14-.212.74-.424 1.27-.246.564-.423 1.129-.423 1.27 0 .14-.917 3.14-2.081 6.597a4661.054 4661.054 0 00-4.94 15.31c-1.622 4.94-3.527 10.83-4.303 13.053a635.566 635.566 0 00-2.752 8.537c-1.446 4.833-1.41 5.08.635 4.022.812-.423 8.255-5.927 14.147-10.442 3.14-2.4 13.934-10.337 17.78-13.088 2.928-2.047 4.304-3.246 4.374-3.775.106-.706-.952-2.117-4.692-6.28-.176-.211-3.21-3.845-6.703-8.078-3.492-4.234-6.667-8.079-7.055-8.502-.953-1.058-2.011-1.305-2.858-.706zM101.299 5.997c-.423.177-4.092 2.54-8.114 5.292a2452.728 2452.728 0 01-13.547 9.102c-3.386 2.222-6.244 4.162-6.35 4.303-.105.106-1.375.953-2.822 1.87-4.48 2.787-5.433 4.022-4.021 5.221.67.53 5.644 7.514 11.43 15.981 5.432 7.973 6.702 9.525 7.831 9.666.882.106.953-.035 2.046-3.528.6-2.01 1.588-5.08 2.152-6.808A704.236 704.236 0 0093.75 35.1c.388-1.164 1.375-4.268 2.257-6.879 4.057-12.276 6.915-21.343 6.915-21.907 0-.706-.459-.812-1.623-.318zM123.348 17.498c-10.654 1.905-19.65 9.807-23.284 20.355-1.87 5.433-2.081 11.007-.494 13.97 1.341 2.54 4.904 4.692 7.903 4.727 4.939.07 9.172-1.975 13.088-6.385.952-1.058 1.834-1.87 1.975-1.764.106.106 0 .917-.247 1.729-.247.846-.423 1.658-.388 1.799.036.141-.07.635-.247 1.058-.14.459-.388 1.235-.494 1.729l-.247.917 5.045.07 5.01.071.635-3.74c.67-3.915 1.834-8.148 4.127-14.992 1.976-5.821 5.856-17.004 6.174-17.71.317-.811-.776-1.235-5.116-1.905-4.127-.6-9.877-.6-13.44.07zm5.15 7.902c.353.6-3.316 10.936-5.256 14.746-2.152 4.233-5.962 7.514-8.82 7.55-2.857.07-4.162-1.376-4.162-4.622 0-6.49 5.715-15.028 11.677-17.357 1.763-.705 6.208-.917 6.561-.317z"/><path d="M206.356 17.674c-2.293.917-4.868 3.352-6.244 6.033-.6 1.129-1.129 2.046-1.235 2.046-.105 0-.14-1.729-.07-3.88l.106-3.881h-5.574l-.247 5.362c-.212 5.221-.917 13.547-1.623 19.685-.53 4.515-.635 5.574-.882 8.29-.106 1.34-.317 2.893-.388 3.422l-.212.988h6.774l.035-1.517c0-.811.07-1.8.141-2.187.07-.388.388-3.563.706-7.056.317-3.492.811-7.514 1.058-8.89.67-3.457 2.857-8.008 4.798-9.948 1.905-1.87 3.28-2.505 5.574-2.505 1.728 0 1.764-.035 1.94-1.164.106-.6.247-2.081.282-3.246l.106-2.116-1.588-.07c-.917-.071-2.363.21-3.457.634zM228.193 17.462c-6.173 1.73-11.218 7.056-13.44 14.112-1.059 3.422-1.341 9.701-.565 13.017 2.081 8.749 8.96 13.159 18.697 11.924 3.175-.388 7.655-1.729 8.432-2.505.246-.247.176-1.058-.283-2.68-.494-1.906-.74-2.294-1.2-2.082-4.197 1.799-5.22 2.046-8.854 2.046-3.457.035-3.81-.035-5.609-1.023-1.023-.565-2.258-1.552-2.752-2.187-1.2-1.553-2.187-4.34-2.47-6.844l-.21-2.082h3.315c10.513 0 18.063-2.716 20.109-7.232.846-1.834.882-5.785.07-8.114-.811-2.398-3.245-4.797-5.962-5.82-2.68-.988-6.738-1.235-9.278-.53zm6.95 5.469c1.2.529 1.658 1.023 2.258 2.328 2.328 5.292-2.505 8.502-12.983 8.713l-3.845.071.106-1.058c.141-1.34 1.87-5.08 3.104-6.738 1.059-1.376 3.281-2.999 4.904-3.599 1.729-.6 4.763-.494 6.456.283zM286.19 17.427c-9.067 2.152-14.993 7.48-17.639 15.84-3.563 11.148.106 21.52 8.184 23.177 5.998 1.27 11.96-1.834 15.1-7.866.564-1.094 1.093-1.905 1.163-1.835.071.07.142 2.081.177 4.48l.07 4.34 2.999.105 2.999.106-.106-7.514c-.106-6.703.035-8.714 1.129-18.591.705-6.103 1.2-11.148 1.164-11.183-.07-.071-1.305-.389-2.752-.67-3.74-.812-9.878-.989-12.488-.389zm8.184 5.257c.388.388-1.305 14.181-2.046 16.65-1.623 5.434-4.692 9.702-8.184 11.325-2.117.988-3.634 1.058-5.468.317-2.752-1.164-4.128-3.316-4.692-7.514-1.27-8.996 4.692-18.873 12.594-20.884 1.411-.318 7.408-.247 7.796.106z"/><path fill="#008dd1" d="M151.323 21.59c-.74 2.187-1.905 5.644-2.54 7.69-.635 2.047-1.27 3.846-1.411 4.057-.141.177-1.164 3.034-2.223 6.35a966.771 966.771 0 01-3.563 10.725c-.882 2.61-1.623 4.868-1.623 5.01 0 .14 2.435.282 5.398.282h5.397l1.659-5.01c.881-2.751 2.751-8.255 4.092-12.241 1.376-3.987 3.14-9.208 3.95-11.642a151.282 151.282 0 012.294-6.597c.459-1.2.847-2.258.847-2.363 0-.106-2.435-.212-5.433-.212h-5.433z"/><path d="M307.498 18.944c.352 1.2 4.162 13.723 6.209 20.39.81 2.717 2.187 7.303 3.033 10.196l1.517 5.221-1.164 2.293c-.67 1.27-2.363 3.528-3.845 5.08-2.117 2.258-3.175 3.07-5.539 4.234l-2.963 1.481.74 1.8c.389.987.883 2.257 1.06 2.786.422 1.13.705 1.094 3.739-.352 5.468-2.611 10.795-8.89 15.028-17.816 1.058-2.187 4.515-10.513 7.726-18.45 3.21-7.973 6.173-15.205 6.561-16.157l.706-1.658H333.356l-4.304 11.535c-2.363 6.386-4.797 13.124-5.397 14.994-.635 1.905-1.2 3.457-1.305 3.457-.106 0-.882-2.575-1.729-5.75-.847-3.14-2.223-8.114-3.034-11.007-.811-2.928-1.94-7.091-2.505-9.278l-1.023-3.951h-6.844zM225.406 70.626c-1.305 6.35-1.27 6.138-.423 6.985 1.164 1.164 4.198.882 5.644-.53 1.87-1.798 2.258-4.656.847-6.067-.882-.882-1.658-.952-3.387-.282-.529.212-.564.07-.105-1.552.529-1.976.458-2.152-.882-2.152-.918 0-.953.106-1.694 3.598zm4.445 3.034c.106.882-.106 1.376-.988 2.223-.917.917-1.164 1.023-1.622.635-.388-.318-.494-.777-.318-1.694.494-2.575 2.717-3.457 2.928-1.164zM262.66 67.698l-1.165.565v10.936h.882c.776 0 .882-.177.988-1.34l.106-1.306h4.48c6.068 0 6.068 0 6.068-4.516 0-1.87-.141-3.633-.317-3.88-.741-1.2-8.89-1.553-11.042-.459zm9.03 1.658c.389.353.565 1.2.565 2.61 0 2.682-.282 2.823-5.08 2.823h-3.74v-2.787c0-3.28-.246-3.104 4.481-3.175 2.505-.035 3.351.106 3.775.53zM277.37 67.31c-1.622.318-1.94 1.058-1.94 4.516 0 3.104.035 3.28.953 4.021.882.67 1.305.706 6.597.635 5.397-.106 5.68-.14 5.68-.811 0-.67-.283-.706-5.363-.882-2.928-.106-5.468-.318-5.644-.459-.283-.317-.318-4.762 0-5.044.282-.283 2.751-.46 7.055-.46 3.845-.034 4.128-.07 4.128-.705 0-.388-.318-.776-.67-.917-.741-.211-9.596-.14-10.796.106z"/><path fill="#008dd1" d="M247.314 67.91c-.741.529-.812.846-.812 3.88 0 4.48-.14 4.41 7.303 4.41 5.292 0 6.773-.247 5.68-.952-.247-.142-2.505-.283-5.045-.318-6.28-.035-6.174.035-6.174-2.963 0-1.553.141-2.54.459-2.717.212-.14 2.716-.352 5.538-.458 4.234-.141 5.116-.283 5.116-.706 0-.811-10.936-.952-12.065-.176z"/><path d="M233.45 70.803c0 .14.352 1.834.776 3.739l.811 3.492-.776.635c-.988.777-.811.953.917.777l1.411-.142 2.152-4.162c1.164-2.293 2.117-4.269 2.117-4.375 0-.106-.494-.211-1.094-.211-.987 0-1.164.211-2.187 2.363l-1.094 2.4-.352-2.294c-.388-2.222-.424-2.293-1.517-2.399-.635-.07-1.164 0-1.164.177z"/></svg>