<svg xmlns="http://www.w3.org/2000/svg" viewBox="0 0 512 512"><path fill="#dd636e" d="M155.6 488.435v-2.737l-17.256-15.935v-79.067l-4.266-2.546a44.688 44.688 0 01-16.894 3.3c-17.466 0-31.194-8.454-39.027-20.542l-53.491 20.891C14.121 396.141 0 409.797 0 430.061v29.016h42.335V512h99.02-.001 6.005l-18.93-13.151v-10.414z"/><path fill="#da4a54" d="M18.672 430.445c0-21.275 11.783-36.281 19.818-44.042l-13.823 5.398C14.121 396.141 0 409.797 0 430.061v29.016h18.672v-28.632z"/><path fill="#ffcebe" d="M0 458.046v45.771A8.183 8.183 0 008.183 512h34.152v-53.954z"/><path fill="#ffb1a0" d="M18.672 458.046H0v45.771A8.183 8.183 0 008.183 512h10.489v-53.954z"/><path fill="#ffcebe" d="M144.001 366.791a4.558 4.558 0 01-2.246-3.914l-.005-16.517a47.51 47.51 0 01-24.523 6.789c-9.886 0-18.645-2.554-25.939-6.872v16.572c0 1.879-.903 2.986-1.943 3.692l-11.727 4.58c7.735 12.529 21.706 21.361 39.568 21.361a44.708 44.708 0 0016.894-3.3l2.034-1.403 2.06-13.478 6.353-6.267z"/><path fill="#ffb1a0" d="M116.534 353.138c-9.602-.117-18.125-2.644-25.247-6.861v16.572c0 1.879-.903 2.986-1.943 3.692l-11.727 4.58c7.64 12.375 21.37 21.127 38.917 21.341z"/><path fill="#3f6d8e" d="M271.46 365.381H150.681c-9.169 0-16.602 7.433-16.602 16.603v87.113c0 9.169 7.433 17.632 16.602 17.632H271.46c9.169 0 16.602-8.463 16.602-17.632v-87.113c0-9.17-7.433-16.603-16.602-16.603z"/><path fill="#365e7d" d="M170.187 469.096v-87.113c0-9.169 7.433-16.603 16.603-16.603h-36.108c-9.169 0-16.602 7.433-16.602 16.603v87.113c0 9.169 7.433 17.632 16.602 17.632h36.108c-9.17.001-16.603-8.462-16.603-17.632z"/><path fill="#f4fbff" d="M215.929 433.266h-9.717a7.726 7.726 0 110-15.452h9.717a7.726 7.726 0 110 15.452z"/><path fill="#4a80aa" d="M293.594 485.698H128.547a6.747 6.747 0 00-6.747 6.747c0 10.8 8.755 19.555 19.555 19.555h139.43c10.8 0 19.555-8.755 19.555-19.555a6.746 6.746 0 00-6.746-6.747z"/><path fill="#3f6d8e" d="M157.909 492.445a6.747 6.747 0 016.747-6.747h-36.108a6.747 6.747 0 00-6.747 6.747c0 10.8 8.755 19.555 19.555 19.555h36.108c-10.8 0-19.555-8.755-19.555-19.555z"/><path fill="#da4a54" d="M50.062 512v-82.202a7.726 7.726 0 10-15.452 0V512z"/><path fill="#ffdecf" d="M149.151 259.508c0-.879-1.177-1.182-1.591-.407-5.348 10.002-15.887 16.81-28.023 16.81H68.04v31.496c0 24.983 19.575 47.802 49.186 47.802 26.358 0 47.802-21.444 47.802-47.802v-31.523c-8.779-.282-15.877-7.532-15.877-16.376z"/><path fill="#ffcebe" d="M95.855 307.408v-31.496H68.04v31.496c0 24.983 19.575 47.802 49.185 47.802a47.63 47.63 0 0013.458-1.942c-21.41-6.002-34.828-25.183-34.828-45.86z"/><path fill="#b06c6c" d="M159.243 218.763c-4.298.331-8.241-2.372-9.068-6.602-1.393-7.124-4.92-14.194-18.699-14.194H83.673c-17.544 0-31.767 14.222-31.767 31.767v34.863c0 7.387 5.988 13.375 13.375 13.375h54.255c12.135 0 22.675-6.808 28.022-16.81.415-.775 1.591-.473 1.591.407 0 9.022 7.382 16.404 16.404 16.404 4.729 0 8.598-3.869 8.598-8.598v-36.381c.002-8.573-7.476-14.803-14.908-14.231z"/><path fill="#9d5e5e" d="M79.721 264.597v-34.863c0-17.544 14.223-31.766 31.767-31.766H83.673c-17.544 0-31.767 14.222-31.767 31.766v34.863c0 7.387 5.988 13.376 13.376 13.376h27.815c-7.387-.001-13.376-5.989-13.376-13.376z"/><path fill="#ffaa5b" d="M367.26 290.469v-2.737l-17.256-15.935V192.73l-4.266-2.546a44.708 44.708 0 01-16.894 3.3c-17.466 0-31.194-8.454-39.027-20.542l-53.491 20.891c-10.546 4.34-24.667 17.996-24.667 38.26v29.016h42.335v52.924h99.02-.001 6.005l-18.93-13.151v-10.414h27.172z"/><path fill="#ff9838" d="M230.332 232.478c0-21.275 11.783-36.281 19.818-44.042l-13.823 5.398c-10.546 4.34-24.667 17.996-24.667 38.26v29.016h18.672v-28.632z"/><path fill="#c18678" d="M211.66 260.08v45.771a8.183 8.183 0 008.183 8.183h34.152V260.08z"/><path fill="#b46e59" d="M230.332 260.08H211.66v45.771a8.183 8.183 0 008.183 8.183h10.489V260.08zM355.661 168.825a4.558 4.558 0 01-2.246-3.915l-.005-16.517a47.51 47.51 0 01-24.523 6.789c-9.886 0-18.645-2.554-25.939-6.872v16.572c0 1.879-.903 2.986-1.943 3.692l-11.727 4.58c7.735 12.529 21.706 21.361 39.568 21.361a44.708 44.708 0 0016.894-3.3l2.034-1.403 2.06-13.478 6.353-6.267z"/><path fill="#a55e4d" d="M328.194 155.171c-9.602-.117-18.125-2.644-25.247-6.861v16.572c0 1.879-.903 2.986-1.943 3.692l-11.727 4.58c7.64 12.375 21.37 21.127 38.917 21.341z"/><path fill="#3f6d8e" d="M483.12 167.415H362.341c-9.169 0-16.602 7.433-16.602 16.603v87.113c0 9.169 7.433 17.632 16.602 17.632H483.12c9.169 0 16.602-8.463 16.602-17.632v-87.113c0-9.17-7.433-16.603-16.602-16.603z"/><path fill="#365e7d" d="M381.847 271.13v-87.113c0-9.169 7.433-16.603 16.603-16.603h-36.108c-9.169 0-16.602 7.433-16.602 16.603v87.113c0 9.169 7.433 17.632 16.602 17.632h36.108c-9.17 0-16.603-8.463-16.603-17.632z"/><path fill="#f4fbff" d="M427.589 235.3h-9.717a7.726 7.726 0 110-15.452h9.717a7.726 7.726 0 110 15.452z"/><path fill="#4a80aa" d="M505.254 287.732H340.207a6.747 6.747 0 00-6.747 6.747c0 10.8 8.755 19.555 19.555 19.555h139.43c10.8 0 19.555-8.755 19.555-19.555a6.746 6.746 0 00-6.746-6.747z"/><path fill="#3f6d8e" d="M369.569 294.479a6.747 6.747 0 016.747-6.747h-36.108a6.747 6.747 0 00-6.747 6.747c0 10.8 8.755 19.555 19.555 19.555h36.108c-10.8 0-19.555-8.755-19.555-19.555z"/><path fill="#ff9838" d="M261.722 314.034v-82.202a7.726 7.726 0 10-15.452 0v82.202z"/><path fill="#c18678" d="M360.811 61.542c0-.879-1.177-1.182-1.591-.407-5.348 10.002-15.887 16.81-28.023 16.81H279.7v31.496c0 24.983 19.575 47.802 49.186 47.802 26.358 0 47.802-21.444 47.802-47.802V77.919c-8.779-.283-15.877-7.533-15.877-16.377z"/><path fill="#b46e59" d="M307.515 109.441V77.945H279.7v31.496c0 24.983 19.575 47.802 49.185 47.802a47.63 47.63 0 0013.458-1.942c-21.41-6.001-34.828-25.182-34.828-45.86z"/><path fill="#365e7d" d="M370.903 20.797c-4.298.331-8.241-2.372-9.068-6.602C360.442 7.07 356.914 0 343.136 0h-47.803c-17.544 0-31.767 14.222-31.767 31.767V66.63c0 7.387 5.988 13.375 13.375 13.375h54.255c12.135 0 22.675-6.808 28.022-16.81.414-.775 1.591-.473 1.591.407 0 9.022 7.382 16.404 16.404 16.404 4.729 0 8.598-3.869 8.598-8.598V35.026c.002-8.571-7.476-14.801-14.908-14.229z"/><path fill="#2b4d66" d="M291.381 66.63V31.767C291.381 14.223 305.604 0 323.148 0h-27.815c-17.544 0-31.767 14.222-31.767 31.766V66.63c0 7.387 5.988 13.376 13.376 13.376h27.815c-7.387 0-13.376-5.989-13.376-13.376z"/><path fill="#75cef9" d="M70.651 175.141a7.726 7.726 0 01-7.726-7.726V70.651a7.726 7.726 0 017.726-7.726h159.481a7.726 7.726 0 110 15.452H78.377v89.037a7.726 7.726 0 01-7.726 7.727zM441.35 449.076H323.011a7.726 7.726 0 110-15.452h110.612v-88.186a7.726 7.726 0 1115.452 0v95.913a7.724 7.724 0 01-7.725 7.725z"/></svg>